<svg width="117" height="117" viewBox="0 0 117 117" fill="none" xmlns="http://www.w3.org/2000/svg">
<mask id="mask0_1_145" style="mask-type:luminance" maskUnits="userSpaceOnUse" x="0" y="0" width="117" height="117">
<path d="M42.5 0L116.112 42.5L73.6122 116.112L0 73.6122L42.5 0Z" fill="white"/>
<path fill-rule="evenodd" clip-rule="evenodd" d="M66.9761 42.606C65.039 37.7881 60.6166 34.2345 55.8911 32.8275C49.8012 31.0177 42.5641 32.5812 38.4089 39.7782C32.9722 49.1949 36.7291 61.5186 46.375 75.4832C46.6504 75.882 47.0109 76.2145 47.4305 76.4568C47.8502 76.699 48.3184 76.845 48.8014 76.8841C65.7193 78.2599 78.2704 75.3515 83.7071 65.9349C87.8623 58.7379 85.5994 51.6858 80.9855 47.3195C77.4042 43.9306 72.1126 41.8759 66.9761 42.606Z" fill="black"/>
</mask>
<g mask="url(#mask0_1_145)">
<path d="M36.8061 94.8622C57.1335 106.598 83.1261 99.6335 94.8622 79.3061C106.598 58.9786 99.6335 32.9861 79.3061 21.25C58.9786 9.51395 32.9861 16.4786 21.25 36.8061C9.51395 57.1335 16.4786 83.1261 36.8061 94.8622Z" fill="white"/>
</g>
</svg>
